<svg xmlns="http://www.w3.org/2000/svg" xmlns:xlink="http://www.w3.org/1999/xlink" width="200" height="130.909" viewBox="0 0 200 130.909"><defs><clipPath id="a"><rect width="200" height="130.909" fill="#fff"/></clipPath><linearGradient id="b" x1="0.5" y1="-0.201" x2="0.5" y2="1.349" gradientUnits="objectBoundingBox"><stop offset="0.01" stop-color="#80562d"/><stop offset="0.02" stop-color="#b69a67"/><stop offset="0.03" stop-color="#cbb67e"/><stop offset="0.04" stop-color="#dccc90"/><stop offset="0.05" stop-color="#e9dd9f"/><stop offset="0.07" stop-color="#f2e8a9"/><stop offset="0.08" stop-color="#f8efae"/><stop offset="0.14" stop-color="#f9f1b0"/><stop offset="0.15" stop-color="#f8eba0"/><stop offset="0.16" stop-color="#f6e28a"/><stop offset="0.18" stop-color="#f5db79"/><stop offset="0.2" stop-color="#f5d66e"/><stop offset="0.23" stop-color="#f4d467"/><stop offset="0.32" stop-color="#f4d467"/><stop offset="0.33" stop-color="#f6e279"/><stop offset="0.35" stop-color="#f8eb86"/><stop offset="0.37" stop-color="#f9f08e"/><stop offset="0.42" stop-color="#f9f290"/><stop offset="0.49" stop-color="#f9f3a6"/><stop offset="0.5" stop-color="#f7efa0"/><stop offset="0.54" stop-color="#f0dd82"/><stop offset="0.58" stop-color="#ead06c"/><stop offset="0.62" stop-color="#e7c95f"/><stop offset="0.66" stop-color="#e6c65b"/><stop offset="0.68" stop-color="#ead06f"/><stop offset="0.73" stop-color="#f5e9a4"/><stop offset="0.75" stop-color="#f8f1b3"/><stop offset="0.76" stop-color="#eddd96"/><stop offset="0.79" stop-color="#e0c470"/><stop offset="0.81" stop-color="#d5b052"/><stop offset="0.84" stop-color="#cda13d"/><stop offset="0.86" stop-color="#c99930"/><stop offset="0.88" stop-color="#c7962c"/><stop offset="0.89" stop-color="#c99b32"/><stop offset="0.9" stop-color="#d1a843"/><stop offset="0.91" stop-color="#dcbd60"/><stop offset="0.93" stop-color="#f9f3a6"/><stop offset="0.94" stop-color="#f6efa3"/><stop offset="0.95" stop-color="#ede49b"/><stop offset="0.96" stop-color="#ded28c"/><stop offset="0.97" stop-color="#c8b778"/><stop offset="0.98" stop-color="#ad955e"/><stop offset="0.99" stop-color="#8b6c3e"/><stop offset="1" stop-color="#5f3615"/></linearGradient><linearGradient id="c" x1="0.501" y1="-6.202" x2="0.501" y2="5.064" xlink:href="#b"/><linearGradient id="d" x1="0.5" y1="-6.135" x2="0.5" y2="5.498" xlink:href="#b"/><linearGradient id="e" x1="0.5" y1="-5.445" x2="0.5" y2="5.539" xlink:href="#b"/><linearGradient id="f" x1="0.5" y1="-4.854" x2="0.5" y2="5.844" xlink:href="#b"/><linearGradient id="g" x1="0.501" y1="-4.501" x2="0.501" y2="6.794" xlink:href="#b"/><linearGradient id="h" x1="0.5" y1="-4.436" x2="0.5" y2="8.936" xlink:href="#b"/><linearGradient id="i" x1="0.5" y1="-4.342" x2="0.5" y2="12.479" xlink:href="#b"/><linearGradient id="j" x1="0.5" y1="-3.941" x2="0.5" y2="17.449" xlink:href="#b"/><linearGradient id="k" x1="0.5" y1="-10.695" x2="0.5" y2="5.39" xlink:href="#b"/><linearGradient id="l" x1="0.5" y1="-11.424" x2="0.5" y2="6.454" xlink:href="#b"/><linearGradient id="m" x1="0.5" y1="-13.141" x2="0.5" y2="8.548" xlink:href="#b"/><linearGradient id="n" x1="0.5" y1="-13.637" x2="0.5" y2="11.107" xlink:href="#b"/><linearGradient id="o" x1="0.5" y1="-8.836" x2="0.5" y2="10.499" xlink:href="#b"/><linearGradient id="p" x1="0.5" y1="-4.95" x2="0.5" y2="9.543" xlink:href="#b"/><linearGradient id="q" x1="0.501" y1="-3.105" x2="0.501" y2="9.992" xlink:href="#b"/><linearGradient id="r" x1="0.499" y1="-1.847" x2="0.499" y2="10.889" xlink:href="#b"/><linearGradient id="s" x1="0.5" y1="-0.201" x2="0.5" y2="1.349" xlink:href="#b"/><linearGradient id="t" x1="0.5" y1="-6.202" x2="0.5" y2="5.064" xlink:href="#b"/><linearGradient id="u" x1="0.5" y1="-6.135" x2="0.5" y2="5.498" xlink:href="#b"/><linearGradient id="v" x1="0.5" y1="-5.445" x2="0.5" y2="5.539" xlink:href="#b"/><linearGradient id="w" x1="0.5" y1="-4.854" x2="0.5" y2="5.844" xlink:href="#b"/><linearGradient id="x" x1="0.5" y1="-4.501" x2="0.5" y2="6.794" xlink:href="#b"/><linearGradient id="y" x1="0.5" y1="-4.436" x2="0.5" y2="8.936" xlink:href="#b"/><linearGradient id="z" x1="0.5" y1="-4.342" x2="0.5" y2="12.479" xlink:href="#b"/><linearGradient id="ab" x1="0.5" y1="-10.695" x2="0.5" y2="5.39" xlink:href="#b"/><linearGradient id="ac" x1="0.501" y1="-11.417" x2="0.501" y2="6.447" xlink:href="#b"/><linearGradient id="af" x1="0.502" y1="-8.836" x2="0.502" y2="10.499" xlink:href="#b"/><linearGradient id="ag" x1="0.5" y1="-4.95" x2="0.5" y2="9.543" xlink:href="#b"/><linearGradient id="ah" x1="0.499" y1="-3.105" x2="0.499" y2="9.992" xlink:href="#b"/><linearGradient id="ai" x1="0.502" y1="-1.847" x2="0.502" y2="10.889" xlink:href="#b"/></defs><g clip-path="url(#a)"><path d="M90.536,108.114C65.423,96.841-7.916,93.321,11.6,30.617c.273-.9.515-1.79.8-2.64s.538-1.676.833-2.465A108.774,108.774,0,0,1,19.105,11.94c3.431-1.919,5.3-7.548,5.506-11.94a15.075,15.075,0,0,0-5.1,6.069c-1.151,2.488-1.219,4.24-.81,5.591a111.369,111.369,0,0,0-6.248,13.693c-.606,1.6-1.189,3.323-1.765,5.151-20.13,64.692,55.095,69.669,77.784,80.585.492.22.962.47,1.431.713,7.2,3.747,17.971,11.379,17.956,19.109a30.6,30.6,0,0,0,3.787-2.276C109.2,118.878,99.525,112.513,90.536,108.114Z" transform="translate(5.977)" fill="url(#b)"/><path d="M40.485,53.034A25.877,25.877,0,0,0,58.16,65c1.515-8.344-11.587-15.5-20.107-18.009A21.126,21.126,0,0,0,40.485,53.034Z" transform="translate(31.135 38.444)" fill="url(#c)"/><path d="M45.939,61.849a8.355,8.355,0,0,0-.757-4.422c-1.636-3.565-6.46-8.815-15.691-13.017C29.99,53.049,37.078,61.47,45.939,61.849Z" transform="translate(24.128 36.335)" fill="url(#d)"/><path d="M33.868,59.351c1.515-6.311-6.119-14.413-11.3-18.472C20.463,49.421,25.893,58.107,33.868,59.351Z" transform="translate(18.092 33.447)" fill="url(#e)"/><path d="M22.547,55.159c2.62-4.969-1.06-14.17-3.643-18.965A14.971,14.971,0,0,0,17.45,38.3C14.027,44.326,16.064,52.337,22.547,55.159Z" transform="translate(12.934 29.613)" fill="url(#f)"/><path d="M18.133,30.032c-7.444,3.907-9.141,13.063-4.415,17.963C17.861,44.718,18.747,35.038,18.133,30.032Z" transform="translate(9.062 24.571)" fill="url(#g)"/><path d="M19.931,22.58c-8.088,1.608-12.761,9.1-10.708,15.172C14.63,36.5,18.674,27.981,19.931,22.58Z" transform="translate(7.151 18.475)" fill="url(#h)"/><path d="M13.652,17.923c-2.719,2.344-4.294,4.931-4.43,8.451,5.733.759,11.587-6.827,14.192-12.009A14.973,14.973,0,0,0,13.652,17.923Z" transform="translate(7.545 11.753)" fill="url(#i)"/><path d="M12.183,15.216C17.386,17.234,24.3,11,27.792,6.325,21.271,5.187,13.857,8.889,12.183,15.216Z" transform="translate(9.968 5.008)" fill="url(#j)"/><path d="M43.926,62.242a14.707,14.707,0,0,0-5.672,10.127c7.414-.2,17.759-4.589,16.661-11.978a11.655,11.655,0,0,0-10.989,1.851Z" transform="translate(31.298 48.891)" fill="url(#k)"/><path d="M29.742,63.159a14.263,14.263,0,0,0-2.189,4.961c9.02.759,19.3-3.194,17.676-10.9a15.043,15.043,0,0,0-15.487,5.94Z" transform="translate(22.543 46.525)" fill="url(#l)"/><path d="M16.686,61.418C28.3,64.793,36.141,59.9,35.725,54.052,28.061,51.4,19.776,54.962,16.686,61.418Z" transform="translate(13.652 43.502)" fill="url(#m)"/><path d="M26.827,49.879c-6.763-4.324-15.646-3.368-20.13.8C16.323,57.89,25.661,55.8,26.827,49.879Z" transform="translate(5.48 38.504)" fill="url(#n)"/><path d="M18.52,44.57C14.2,38.228,6.274,35.406.625,36.984,5.154,45.328,14.347,50.328,18.52,44.57Z" transform="translate(0.511 29.908)" fill="url(#o)"/><path d="M11.208,37.57A6.049,6.049,0,0,0,12.761,37C11.89,31.084,6.536,24.69,0,23.673,1.242,33.019,6.816,38.5,11.208,37.57Z" transform="translate(0 19.369)" fill="url(#p)"/><path d="M11.3,27.479a15.019,15.019,0,0,0-1.537-9.021,14.985,14.985,0,0,0-6.483-6.447C2.375,20.986,6.123,27.965,11.3,27.479Z" transform="translate(2.571 9.828)" fill="url(#q)"/><path d="M13.438,17.674c2.272-5.507-.076-12.433-4.544-15.93C6.932,8.5,8.159,16.809,13.438,17.674Z" transform="translate(6.556 1.427)" fill="url(#r)"/><path d="M66.415,108.114c25.12-11.273,98.451-14.793,78.942-77.5-.28-.9-.515-1.79-.809-2.64s-.538-1.676-.833-2.465a108.742,108.742,0,0,0-5.869-13.571c-3.431-1.919-5.3-7.548-5.5-11.94a15.059,15.059,0,0,1,5.089,6.069c1.151,2.488,1.219,4.24.81,5.591a110.241,110.241,0,0,1,6.248,13.693c.606,1.6,1.19,3.323,1.764,5.151,20.138,64.692-55.095,69.669-77.784,80.585-.492.22-.962.47-1.431.713-7.2,3.747-17.964,11.379-17.956,19.109a30.618,30.618,0,0,1-3.787-2.276C47.755,118.878,57.426,112.513,66.415,108.114Z" transform="translate(37.065)" fill="url(#s)"/><path d="M78.631,53.034A25.908,25.908,0,0,1,60.925,65c-1.515-8.344,11.587-15.5,20.1-18.009A21.325,21.325,0,0,1,78.631,53.034Z" transform="translate(49.749 38.444)" fill="url(#t)"/><path d="M71.484,61.849a8.264,8.264,0,0,1,.757-4.422c1.636-3.565,6.46-8.815,15.692-13.017C87.425,53.049,80.337,61.47,71.484,61.849Z" transform="translate(58.449 36.335)" fill="url(#u)"/><path d="M81.506,59.351c-1.515-6.311,6.119-14.413,11.3-18.472C94.9,49.421,89.481,58.107,81.506,59.351Z" transform="translate(66.527 33.447)" fill="url(#v)"/><path d="M90.887,55.159c-2.62-4.969,1.06-14.17,3.65-18.965A16.373,16.373,0,0,1,95.991,38.3C99.407,44.326,97.369,52.337,90.887,55.159Z" transform="translate(73.625 29.613)" fill="url(#w)"/><path d="M95.111,30.032c7.444,3.907,9.134,13.063,4.407,17.963C95.4,44.718,94.505,35.038,95.111,30.032Z" transform="translate(77.678 24.571)" fill="url(#x)"/><path d="M95.105,22.58c8.088,1.608,12.753,9.1,10.7,15.172C100.4,36.5,96.355,27.981,95.105,22.58Z" transform="translate(77.813 18.475)" fill="url(#y)"/><path d="M102.734,17.923c2.711,2.344,4.286,4.931,4.423,8.451-5.725.759-11.587-6.827-14.185-12.009A15,15,0,0,1,102.734,17.923Z" transform="translate(76.068 11.753)" fill="url(#z)"/><path d="M104.836,15.216C99.641,17.234,92.681,11,89.228,6.325,95.748,5.187,103.163,8.889,104.836,15.216Z" transform="translate(73.005 5.008)" fill="url(#j)"/><path d="M73.6,62.242a14.706,14.706,0,0,1,5.672,10.127c-7.407-.2-17.759-4.589-16.661-11.978A11.646,11.646,0,0,1,73.6,62.242Z" transform="translate(51.164 48.891)" fill="url(#ab)"/><path d="M88.288,63.146a14.265,14.265,0,0,1,2.173,5c-9.02.759-19.289-3.194-17.668-10.9a15.02,15.02,0,0,1,15.495,5.9Z" transform="translate(59.419 46.538)" fill="url(#ac)"/><path d="M101.884,61.418c-11.61,3.376-19.455-1.517-19.039-7.366C90.51,51.4,98.772,54.962,101.884,61.418Z" transform="translate(67.77 43.502)" fill="url(#m)"/><path d="M92.227,49.879c6.763-4.324,15.646-3.368,20.129.8C102.731,57.89,93.393,55.8,92.227,49.879Z" transform="translate(75.458 38.504)" fill="url(#n)"/><path d="M99.512,44.57c4.324-6.342,12.246-9.164,17.895-7.586C112.916,45.328,103.716,50.328,99.512,44.57Z" transform="translate(81.419 29.908)" fill="url(#af)"/><path d="M104.53,37.57A6.064,6.064,0,0,1,102.977,37c.871-5.917,6.233-12.312,12.769-13.328C114.5,33.019,108.922,38.5,104.53,37.57Z" transform="translate(84.254 19.369)" fill="url(#ag)"/><path d="M102.435,27.479a15.012,15.012,0,0,1,8.02-15.468C111.357,20.986,107.608,27.965,102.435,27.479Z" transform="translate(83.69 9.828)" fill="url(#ah)"/><path d="M99.395,17.674c-2.272-5.507.083-12.433,4.544-15.93C105.9,8.5,104.674,16.809,99.395,17.674Z" transform="translate(80.604 1.427)" fill="url(#ai)"/></g></svg>